<svg width="24" height="24" viewBox="0 0 24 24" fill="none" xmlns="http://www.w3.org/2000/svg">
<path d="M24 14.7018V9.34686C24 8.81136 23.5619 8.56795 23.0264 8.56795H15.432V0.97363C15.432 0.438134 15.1886 0 14.6531 0H9.29817C8.76268 0 8.51927 0.438134 8.51927 0.97363V8.56795H0.973631C0.438134 8.56795 0 8.81136 0 9.34686V14.7018C0 15.2373 0.438134 15.4807 0.973631 15.4807H8.51927V23.0264C8.51927 23.5619 8.76268 24 9.29817 24H14.6531C15.1886 24 15.432 23.5619 15.432 23.0264V15.4807H23.0264C23.5619 15.4807 24 15.2373 24 14.7018Z" fill="#CCCCCC"/>
</svg>
