<svg width="64" height="64" viewBox="0 0 64 64" fill="none" xmlns="http://www.w3.org/2000/svg">
<path fill-rule="evenodd" clip-rule="evenodd" d="M36.7597 24.7147C37.3597 25.829 38.4911 26.8747 39.8111 28.0403L39.8251 28.0528C42.5313 30.4506 45.8967 33.4326 45.8967 38.9259C45.8967 45.4401 40.4111 50 32.5426 50H32.3541C24.4856 50 19 45.4572 19 38.9259C19 33.435 22.3625 30.4532 25.0851 28.0389L25.1028 28.0232C26.457 26.8232 27.6227 25.7604 28.2056 24.5947C27.5541 24.0118 27.3142 23.0519 27.7256 22.229C27.8799 21.9204 28.1199 21.6805 28.4113 21.4919C27.7427 20.1205 26.7999 18.6976 26.1313 17.7034L26.1098 17.6711C25.1675 16.2577 24.917 15.882 25.2913 15.3206C25.497 15.0291 25.8913 14.8748 26.2342 14.9434C27.9736 15.3114 30.3493 14.8961 32.47 14.5254C32.5229 14.5161 32.5757 14.5069 32.6284 14.4977C35.4569 13.9834 37.6854 13.5892 38.7483 14.7891C39.2968 15.4234 39.3825 16.3148 39.0054 17.5319C38.6714 18.6173 37.8658 19.7678 37.1588 20.7773C37.14 20.8042 37.1212 20.8309 37.1026 20.8576C36.9483 21.0805 36.8111 21.2862 36.674 21.4919C36.9483 21.6805 37.2054 21.9204 37.3597 22.2462C37.7883 23.1204 37.4968 24.1318 36.7597 24.7147ZM29.2684 22.9833C29.1827 23.1376 29.2513 23.3433 29.3884 23.4119C29.3899 23.4119 29.4021 23.4174 29.4244 23.4275C29.6558 23.5327 30.9738 24.1318 32.6626 24.1318C33.7426 24.1318 34.754 23.8918 35.714 23.4119C35.8683 23.3261 35.9197 23.1376 35.8512 22.9833C35.7997 22.8804 35.7312 22.8461 35.6797 22.829C35.6283 22.8119 35.5597 22.8119 35.474 22.8461C32.7502 24.2413 29.962 22.9813 29.6818 22.8547C29.6728 22.8506 29.6664 22.8477 29.6627 22.8461C29.6113 22.8119 29.5598 22.8119 29.5255 22.8119C29.5055 22.8119 29.4854 22.8177 29.4687 22.8226C29.457 22.8261 29.4469 22.829 29.4398 22.829C29.3884 22.8461 29.3198 22.8804 29.2684 22.9833ZM33.0003 16.1664L32.9369 16.1777L32.9318 16.1786C31.2189 16.4869 29.3181 16.8291 27.5884 16.7948C28.377 17.9605 29.4913 19.6576 30.2112 21.269C30.2375 21.2865 30.2683 21.2906 30.3012 21.295C30.3327 21.2992 30.3663 21.3037 30.3998 21.3205C30.4008 21.3205 30.4092 21.324 30.4244 21.3304C30.6727 21.4346 32.7466 22.3056 34.6683 21.3205C34.6855 21.3205 34.7197 21.3205 34.7369 21.3033C34.754 21.2947 34.7626 21.2819 34.7712 21.269C34.7797 21.2562 34.7883 21.2433 34.8055 21.2347C35.0283 20.8405 35.3369 20.3948 35.6969 19.8805C36.3312 18.9891 37.1026 17.8748 37.3768 17.0177C37.5826 16.3663 37.5483 16.0234 37.4626 15.9205C37.0392 15.4464 34.7255 15.8588 33.0003 16.1664ZM32.3541 48.2857H32.5426C38.1483 48.2857 44.1825 45.3544 44.1653 38.9259C44.1653 34.1945 41.2511 31.606 38.6625 29.326C37.2568 28.0918 35.954 26.8747 35.1997 25.4518C34.3769 25.709 33.5369 25.8461 32.6455 25.8461C31.4627 25.8461 30.4341 25.6232 29.7141 25.3832C28.977 26.8404 27.6399 28.0575 26.217 29.326L26.1998 29.3413C23.6325 31.6176 20.7143 34.2051 20.7143 38.9259C20.7143 45.3544 26.7484 48.2857 32.3541 48.2857ZM33.2968 33.0116V36.9544C34.7196 37.2115 36.7425 37.8973 36.7425 40.5201C36.7425 42.3029 35.2682 43.7943 33.2968 44.1372V44.9943C33.2968 45.4743 32.9197 45.8514 32.4397 45.8514C31.9597 45.8514 31.5825 45.4743 31.5825 44.9943V44.1029C30.194 43.8629 29.0111 43.0915 28.4626 41.9429C28.2569 41.5143 28.4283 41.0001 28.8569 40.7943C29.2854 40.5886 29.7997 40.7601 30.0054 41.1886C30.2797 41.7543 30.8625 42.1829 31.5825 42.3715V38.4115C28.7883 37.8115 28.1369 36.2001 28.1369 34.8802C28.1369 33.0973 29.6111 31.6059 31.5825 31.2631V30.3888C31.5825 29.9088 31.9597 29.5317 32.4397 29.5317C32.9197 29.5317 33.2968 29.9088 33.2968 30.3888V31.2802C34.6339 31.5202 35.7996 32.2573 36.3653 33.3373C36.5882 33.7659 36.4167 34.2802 36.0053 34.503C35.5768 34.7259 35.0625 34.5544 34.8396 34.143C34.5653 33.5945 33.9825 33.2002 33.2968 33.0116ZM31.5825 33.0116C30.5711 33.2859 29.8511 34.0059 29.8511 34.863C29.8511 35.2916 29.8683 36.183 31.5825 36.6458V33.0116ZM33.2968 38.7201V42.3715C34.3082 42.0972 35.0282 41.3772 35.0282 40.5201C35.0282 39.5087 34.5825 39.0115 33.2968 38.7201Z" fill="#00B495"/>
</svg>
