<svg width="64" height="64" viewBox="0 0 64 64" fill="none" xmlns="http://www.w3.org/2000/svg">
<path fill-rule="evenodd" clip-rule="evenodd" d="M12.3976 28.8029L15.3276 34.6835C17.6299 33.7608 20.2692 34.9796 21.4209 37.291C22.573 39.6034 21.9565 42.4434 19.8329 43.7258L22.7629 49.6063L51.5676 35.2543L48.6376 29.3738C46.3343 30.2972 43.6967 29.0791 42.5443 26.7662C41.3924 24.4544 42.0084 21.6141 44.1323 20.3315L41.2023 14.4509L12.3976 28.8029ZM10.6644 29.3336C10.338 28.6784 10.496 27.7529 11.2802 27.3621L40.725 12.6912C41.5092 12.3005 42.3432 12.7318 42.6697 13.3869L45.859 19.7879C46.1854 20.4431 46.0275 21.3686 45.2432 21.7594C43.9067 22.4253 43.297 24.2679 44.1446 25.9689C44.9925 27.6708 46.8297 28.2932 48.1668 27.627C48.951 27.2362 49.785 27.6675 50.1114 28.3227L53.3008 34.7237C53.6272 35.3788 53.4692 36.3044 52.685 36.6951L23.2402 51.366C22.4559 51.7568 21.622 51.3255 21.2955 50.6704L18.1062 44.2693C17.7798 43.6142 17.9377 42.6887 18.722 42.2979C20.0583 41.6321 20.6683 39.7897 19.8206 38.0884C18.9734 36.3879 17.1342 35.7647 15.7984 36.4303C15.0142 36.821 14.1802 36.3897 13.8538 35.7346L10.6644 29.3336ZM34.5543 19.2049C34.9962 18.9847 35.5329 19.1645 35.7531 19.6064L44.2145 36.5885C44.4346 37.0304 44.2549 37.5671 43.813 37.7873C43.3711 38.0074 42.8344 37.8277 42.6142 37.3858L34.1528 20.4037C33.9327 19.9618 34.1124 19.4251 34.5543 19.2049ZM29.8202 23.5043C30.3128 23.5369 30.6858 23.9627 30.6531 24.4553L29.4165 43.1325C29.3839 43.6251 28.9581 43.9981 28.4655 43.9654C27.9728 43.9328 27.5999 43.507 27.6325 43.0144L28.8691 24.3372C28.9018 23.8446 29.3276 23.4717 29.8202 23.5043ZM21.4882 32.0139C20.6644 30.3604 21.1569 28.2672 22.8384 27.4294C24.5199 26.5916 26.4875 27.459 27.3114 29.1125C28.1353 30.7661 27.6427 32.8593 25.9613 33.6971C24.2798 34.5349 22.3121 33.6675 21.4882 32.0139ZM23.6357 29.0297C22.9849 29.3539 22.628 30.2924 23.0885 31.2166C23.549 32.1408 24.5132 32.4211 25.1639 32.0968C25.8147 31.7726 26.1716 30.8341 25.7111 29.9099C25.2507 28.9857 24.2865 28.7054 23.6357 29.0297ZM30.7417 37.8904C29.9178 36.2369 30.4104 34.1437 32.0919 33.3059C33.7733 32.4681 35.741 33.3355 36.5649 34.989C37.3888 36.6426 36.8962 38.7358 35.2147 39.5736C33.5333 40.4114 31.5656 39.544 30.7417 37.8904ZM32.8892 34.9061C32.2384 35.2304 31.8815 36.1689 32.342 37.0931C32.8025 38.0173 33.7667 38.2975 34.4174 37.9733C35.0682 37.6491 35.4251 36.7106 34.9646 35.7864C34.5041 34.8622 33.54 34.5819 32.8892 34.9061Z" fill="#F26649"/>
</svg>
