<svg width="64" height="67" viewBox="0 0 64 67" fill="none" xmlns="http://www.w3.org/2000/svg">
<mask id="path-1-inside-1_249:4033" fill="white">
<path fill-rule="evenodd" clip-rule="evenodd" d="M15.8445 18C14.4523 18 13.3282 19.1246 13.3282 20.5104V44.9638C13.3282 45.6679 13.8979 46.2394 14.6021 46.2415L16.6475 46.2478C17.3532 46.2499 17.927 45.6796 17.9292 44.9739C17.9313 44.2682 17.361 43.6944 16.6553 43.6922L15.8838 43.6899V20.5556H38.9676L38.8788 43.7233H32.3113C31.6056 43.7233 31.0335 44.2954 31.0335 45.0011C31.0335 45.7068 31.6056 46.2789 32.3113 46.2789H40.1517C40.8555 46.2789 41.4268 45.7098 41.4295 45.006L41.4993 26.806H49.8585C53.275 26.806 55.7953 29.2366 55.7953 31.8657V43.6923H55.226C54.5203 43.6923 53.9482 44.2644 53.9482 44.9701C53.9482 45.6758 54.5203 46.2479 55.226 46.2479H57.0731C57.7788 46.2479 58.3509 45.6758 58.3509 44.9701V31.8657C58.3509 27.5223 54.3631 24.2504 49.8585 24.2504H41.509L41.5233 20.5215L41.5233 20.5166C41.5233 19.1288 40.4035 18 39.0071 18H15.8445ZM21.4415 46.3272C21.4415 44.6107 22.8402 43.2098 24.5798 43.2098C26.3142 43.2098 27.7181 44.6119 27.7181 46.3272C27.7181 48.0315 26.339 49.4247 24.6166 49.4443H24.5428C22.8155 49.4247 21.4415 48.0327 21.4415 46.3272ZM19.8197 49.4443C19.2293 48.5504 18.8859 47.4794 18.8859 46.3272C18.8859 43.1879 21.4403 40.6543 24.5798 40.6543C27.7118 40.6543 30.2736 43.1867 30.2736 46.3272C30.2736 47.4797 29.9294 48.5505 29.3383 49.4443H43.124C42.5336 48.5504 42.1903 47.4794 42.1903 46.3272C42.1903 43.1879 44.7447 40.6543 47.8841 40.6543C51.0236 40.6543 53.578 43.1879 53.578 46.3272C53.578 48.9098 51.8493 51.0824 49.4882 51.7718C49.2815 51.9156 49.0303 51.9999 48.7594 51.9999H47.9336L47.8841 52.0001L47.8346 51.9999H24.6292L24.5798 52.0001L24.5302 51.9999H17.3184C16.6127 51.9999 16.0406 51.4278 16.0406 50.7221C16.0406 50.0164 16.6127 49.4443 17.3184 49.4443H19.8197ZM47.921 49.4443C49.6434 49.4247 51.0224 48.0315 51.0224 46.3272C51.0224 44.6107 49.6237 43.2098 47.8841 43.2098C46.1446 43.2098 44.7458 44.6107 44.7458 46.3272C44.7458 48.0327 46.1199 49.4247 47.8472 49.4443H47.921ZM43.9414 28.8156H49.745C51.8621 28.8156 53.5784 30.5318 53.5784 32.6489V38.5571H43.9414V28.8156ZM46.4969 31.3711V36.0015H51.0228V32.6489C51.0228 31.9432 50.4507 31.3711 49.745 31.3711H46.4969ZM7.25185 50.7221C7.25185 50.0164 7.82393 49.4443 8.52963 49.4443H13.0333C13.739 49.4443 14.3111 50.0164 14.3111 50.7221C14.3111 51.4278 13.739 51.9999 13.0333 51.9999H8.52963C7.82393 51.9999 7.25185 51.4278 7.25185 50.7221ZM8.0678 38.6154C7.3621 38.6154 6.79002 39.1875 6.79002 39.8932C6.79002 40.5989 7.3621 41.171 8.0678 41.171H11.2316C11.9373 41.171 12.5094 40.5989 12.5094 39.8932C12.5094 39.1875 11.9373 38.6154 11.2316 38.6154H8.0678ZM7.25141 33.6865C7.25141 32.9808 7.82349 32.4087 8.52919 32.4087H9.76558C10.4713 32.4087 11.0434 32.9808 11.0434 33.6865C11.0434 34.3922 10.4713 34.9643 9.76558 34.9643H8.52919C7.82349 34.9643 7.25141 34.3922 7.25141 33.6865ZM6.27778 25.4341C5.57208 25.4341 5 26.0062 5 26.7119C5 27.4176 5.57208 27.9896 6.27778 27.9896H10.7815C11.4872 27.9896 12.0593 27.4176 12.0593 26.7119C12.0593 26.0062 11.4872 25.4341 10.7815 25.4341H6.27778Z"/>
</mask>
<path fill-rule="evenodd" clip-rule="evenodd" d="M15.8445 18C14.4523 18 13.3282 19.1246 13.3282 20.5104V44.9638C13.3282 45.6679 13.8979 46.2394 14.6021 46.2415L16.6475 46.2478C17.3532 46.2499 17.927 45.6796 17.9292 44.9739C17.9313 44.2682 17.361 43.6944 16.6553 43.6922L15.8838 43.6899V20.5556H38.9676L38.8788 43.7233H32.3113C31.6056 43.7233 31.0335 44.2954 31.0335 45.0011C31.0335 45.7068 31.6056 46.2789 32.3113 46.2789H40.1517C40.8555 46.2789 41.4268 45.7098 41.4295 45.006L41.4993 26.806H49.8585C53.275 26.806 55.7953 29.2366 55.7953 31.8657V43.6923H55.226C54.5203 43.6923 53.9482 44.2644 53.9482 44.9701C53.9482 45.6758 54.5203 46.2479 55.226 46.2479H57.0731C57.7788 46.2479 58.3509 45.6758 58.3509 44.9701V31.8657C58.3509 27.5223 54.3631 24.2504 49.8585 24.2504H41.509L41.5233 20.5215L41.5233 20.5166C41.5233 19.1288 40.4035 18 39.0071 18H15.8445ZM21.4415 46.3272C21.4415 44.6107 22.8402 43.2098 24.5798 43.2098C26.3142 43.2098 27.7181 44.6119 27.7181 46.3272C27.7181 48.0315 26.339 49.4247 24.6166 49.4443H24.5428C22.8155 49.4247 21.4415 48.0327 21.4415 46.3272ZM19.8197 49.4443C19.2293 48.5504 18.8859 47.4794 18.8859 46.3272C18.8859 43.1879 21.4403 40.6543 24.5798 40.6543C27.7118 40.6543 30.2736 43.1867 30.2736 46.3272C30.2736 47.4797 29.9294 48.5505 29.3383 49.4443H43.124C42.5336 48.5504 42.1903 47.4794 42.1903 46.3272C42.1903 43.1879 44.7447 40.6543 47.8841 40.6543C51.0236 40.6543 53.578 43.1879 53.578 46.3272C53.578 48.9098 51.8493 51.0824 49.4882 51.7718C49.2815 51.9156 49.0303 51.9999 48.7594 51.9999H47.9336L47.8841 52.0001L47.8346 51.9999H24.6292L24.5798 52.0001L24.5302 51.9999H17.3184C16.6127 51.9999 16.0406 51.4278 16.0406 50.7221C16.0406 50.0164 16.6127 49.4443 17.3184 49.4443H19.8197ZM47.921 49.4443C49.6434 49.4247 51.0224 48.0315 51.0224 46.3272C51.0224 44.6107 49.6237 43.2098 47.8841 43.2098C46.1446 43.2098 44.7458 44.6107 44.7458 46.3272C44.7458 48.0327 46.1199 49.4247 47.8472 49.4443H47.921ZM43.9414 28.8156H49.745C51.8621 28.8156 53.5784 30.5318 53.5784 32.6489V38.5571H43.9414V28.8156ZM46.4969 31.3711V36.0015H51.0228V32.6489C51.0228 31.9432 50.4507 31.3711 49.745 31.3711H46.4969ZM7.25185 50.7221C7.25185 50.0164 7.82393 49.4443 8.52963 49.4443H13.0333C13.739 49.4443 14.3111 50.0164 14.3111 50.7221C14.3111 51.4278 13.739 51.9999 13.0333 51.9999H8.52963C7.82393 51.9999 7.25185 51.4278 7.25185 50.7221ZM8.0678 38.6154C7.3621 38.6154 6.79002 39.1875 6.79002 39.8932C6.79002 40.5989 7.3621 41.171 8.0678 41.171H11.2316C11.9373 41.171 12.5094 40.5989 12.5094 39.8932C12.5094 39.1875 11.9373 38.6154 11.2316 38.6154H8.0678ZM7.25141 33.6865C7.25141 32.9808 7.82349 32.4087 8.52919 32.4087H9.76558C10.4713 32.4087 11.0434 32.9808 11.0434 33.6865C11.0434 34.3922 10.4713 34.9643 9.76558 34.9643H8.52919C7.82349 34.9643 7.25141 34.3922 7.25141 33.6865ZM6.27778 25.4341C5.57208 25.4341 5 26.0062 5 26.7119C5 27.4176 5.57208 27.9896 6.27778 27.9896H10.7815C11.4872 27.9896 12.0593 27.4176 12.0593 26.7119C12.0593 26.0062 11.4872 25.4341 10.7815 25.4341H6.27778Z" fill="#B09C56"/>
<path d="M14.6021 46.2415L14.6012 46.5415H14.6012L14.6021 46.2415ZM16.6475 46.2478L16.6484 45.9478H16.6484L16.6475 46.2478ZM17.9292 44.9739L17.6292 44.973L17.9292 44.9739ZM16.6553 43.6922L16.6562 43.3922L16.6553 43.6922ZM15.8838 43.6899H15.5838C15.5838 43.8552 15.7175 43.9894 15.8829 43.9899L15.8838 43.6899ZM15.8838 20.5556V20.2556C15.7181 20.2556 15.5838 20.3899 15.5838 20.5556H15.8838ZM38.9676 20.5556L39.2676 20.5567C39.2679 20.477 39.2365 20.4004 39.1802 20.3438C39.1239 20.2873 39.0474 20.2556 38.9676 20.2556V20.5556ZM38.8788 43.7233V44.0233C39.0441 44.0233 39.1782 43.8897 39.1788 43.7245L38.8788 43.7233ZM41.4295 45.006L41.7295 45.0072V45.0072L41.4295 45.006ZM41.4993 26.806V26.506C41.334 26.506 41.1999 26.6396 41.1993 26.8048L41.4993 26.806ZM55.7953 43.6923V43.9923C55.961 43.9923 56.0953 43.858 56.0953 43.6923H55.7953ZM41.509 24.2504L41.209 24.2493C41.2087 24.329 41.2402 24.4056 41.2965 24.4621C41.3528 24.5187 41.4293 24.5504 41.509 24.5504V24.2504ZM41.5233 20.5215L41.8233 20.5227V20.5222L41.5233 20.5215ZM41.5233 20.5166L41.8233 20.5173V20.5166H41.5233ZM24.6166 49.4443V49.7443L24.62 49.7443L24.6166 49.4443ZM24.5428 49.4443L24.5394 49.7443H24.5428V49.4443ZM19.8197 49.4443V49.7443C19.9301 49.7443 20.0315 49.6837 20.0839 49.5864C20.1362 49.4892 20.1308 49.3711 20.07 49.279L19.8197 49.4443ZM29.3383 49.4443L29.0881 49.2788C29.0271 49.371 29.0218 49.4891 29.0741 49.5864C29.1264 49.6836 29.2279 49.7443 29.3383 49.7443V49.4443ZM43.124 49.4443V49.7443C43.2344 49.7443 43.3359 49.6837 43.3882 49.5864C43.4405 49.4892 43.4352 49.3711 43.3744 49.279L43.124 49.4443ZM49.4882 51.7718L49.4041 51.4838C49.373 51.4929 49.3435 51.507 49.3169 51.5255L49.4882 51.7718ZM47.9336 51.9999V51.6999L47.9323 51.6999L47.9336 51.9999ZM47.8841 52.0001L47.8829 52.3001L47.8854 52.3001L47.8841 52.0001ZM47.8346 51.9999L47.8358 51.6999H47.8346V51.9999ZM24.6292 51.9999V51.6999L24.628 51.6999L24.6292 51.9999ZM24.5798 52.0001L24.5785 52.3001L24.581 52.3001L24.5798 52.0001ZM24.5302 51.9999L24.5315 51.6999H24.5302V51.9999ZM47.921 49.4443V49.7443L47.9244 49.7443L47.921 49.4443ZM47.8472 49.4443L47.8438 49.7443H47.8472V49.4443ZM43.9414 28.8156V28.5156C43.7757 28.5156 43.6414 28.6499 43.6414 28.8156H43.9414ZM53.5784 38.5571V38.8571C53.7441 38.8571 53.8784 38.7228 53.8784 38.5571H53.5784ZM43.9414 38.5571H43.6414C43.6414 38.7228 43.7757 38.8571 43.9414 38.8571V38.5571ZM46.4969 36.0015H46.1969C46.1969 36.1672 46.3312 36.3015 46.4969 36.3015V36.0015ZM46.4969 31.3711V31.0711C46.3312 31.0711 46.1969 31.2054 46.1969 31.3711H46.4969ZM51.0228 36.0015V36.3015C51.1885 36.3015 51.3228 36.1672 51.3228 36.0015H51.0228ZM13.6282 20.5104C13.6282 19.2907 14.6175 18.3 15.8445 18.3V17.7C14.287 17.7 13.0282 18.9585 13.0282 20.5104H13.6282ZM13.6282 44.9638V20.5104H13.0282V44.9638H13.6282ZM14.603 45.9415C14.0642 45.9399 13.6282 45.5026 13.6282 44.9638H13.0282C13.0282 45.8333 13.7317 46.5389 14.6012 46.5415L14.603 45.9415ZM16.6484 45.9478L14.603 45.9415L14.6012 46.5415L16.6466 46.5478L16.6484 45.9478ZM17.6292 44.973C17.6275 45.513 17.1884 45.9494 16.6484 45.9478L16.6466 46.5478C17.518 46.5504 18.2265 45.8462 18.2292 44.9748L17.6292 44.973ZM16.6544 43.9922C17.1944 43.9939 17.6308 44.433 17.6292 44.973L18.2292 44.9748C18.2318 44.1034 17.5276 43.3949 16.6562 43.3922L16.6544 43.9922ZM15.8829 43.9899L16.6544 43.9922L16.6562 43.3922L15.8847 43.3899L15.8829 43.9899ZM15.5838 20.5556V43.6899H16.1838V20.5556H15.5838ZM38.9676 20.2556H15.8838V20.8556H38.9676V20.2556ZM39.1788 43.7245L39.2676 20.5567L38.6676 20.5544L38.5788 43.7222L39.1788 43.7245ZM32.3113 44.0233H38.8788V43.4233H32.3113V44.0233ZM31.3335 45.0011C31.3335 44.4611 31.7713 44.0233 32.3113 44.0233V43.4233C31.4399 43.4233 30.7335 44.1297 30.7335 45.0011H31.3335ZM32.3113 45.9789C31.7713 45.9789 31.3335 45.5411 31.3335 45.0011H30.7335C30.7335 45.8725 31.4399 46.5789 32.3113 46.5789V45.9789ZM40.1517 45.9789H32.3113V46.5789H40.1517V45.9789ZM41.1295 45.0049C41.1274 45.5434 40.6903 45.9789 40.1517 45.9789V46.5789C41.0208 46.5789 41.7262 45.8762 41.7295 45.0072L41.1295 45.0049ZM41.1993 26.8048L41.1295 45.0049L41.7295 45.0072L41.7993 26.8071L41.1993 26.8048ZM49.8585 26.506H41.4993V27.106H49.8585V26.506ZM56.0953 31.8657C56.0953 29.0377 53.4054 26.506 49.8585 26.506V27.106C53.1446 27.106 55.4953 29.4355 55.4953 31.8657H56.0953ZM56.0953 43.6923V31.8657H55.4953V43.6923H56.0953ZM55.226 43.9923H55.7953V43.3923H55.226V43.9923ZM54.2482 44.9701C54.2482 44.4301 54.686 43.9923 55.226 43.9923V43.3923C54.3546 43.3923 53.6482 44.0987 53.6482 44.9701H54.2482ZM55.226 45.9479C54.686 45.9479 54.2482 45.5101 54.2482 44.9701H53.6482C53.6482 45.8415 54.3546 46.5479 55.226 46.5479V45.9479ZM57.0731 45.9479H55.226V46.5479H57.0731V45.9479ZM58.0509 44.9701C58.0509 45.5101 57.6131 45.9479 57.0731 45.9479V46.5479C57.9445 46.5479 58.6509 45.8415 58.6509 44.9701H58.0509ZM58.0509 31.8657V44.9701H58.6509V31.8657H58.0509ZM49.8585 24.5504C54.2372 24.5504 58.0509 27.7251 58.0509 31.8657H58.6509C58.6509 27.3194 54.489 23.9504 49.8585 23.9504V24.5504ZM41.509 24.5504H49.8585V23.9504H41.509V24.5504ZM41.2233 20.5204L41.209 24.2493L41.809 24.2516L41.8233 20.5227L41.2233 20.5204ZM41.2234 20.5159L41.2233 20.5208L41.8233 20.5222L41.8233 20.5173L41.2234 20.5159ZM39.0071 18.3C40.2371 18.3 41.2234 19.2938 41.2234 20.5166H41.8233C41.8233 18.9639 40.5699 17.7 39.0071 17.7V18.3ZM15.8445 18.3H39.0071V17.7H15.8445V18.3ZM24.5798 42.9098C22.6757 42.9098 21.1415 44.4438 21.1415 46.3272H21.7415C21.7415 44.7776 23.0047 43.5098 24.5798 43.5098V42.9098ZM28.0181 46.3272C28.0181 44.4448 26.4785 42.9098 24.5798 42.9098V43.5098C26.1499 43.5098 27.4181 44.779 27.4181 46.3272H28.0181ZM24.62 49.7443C26.5054 49.7228 28.0181 48.1972 28.0181 46.3272H27.4181C27.4181 47.8658 26.1726 49.1266 24.6132 49.1443L24.62 49.7443ZM24.5428 49.7443H24.6166V49.1443H24.5428V49.7443ZM21.1415 46.3272C21.1415 48.1981 22.6488 49.7228 24.5394 49.7443L24.5462 49.1443C22.9822 49.1266 21.7415 47.8672 21.7415 46.3272H21.1415ZM18.5859 46.3272C18.5859 47.54 18.9475 48.6681 19.5693 49.6096L20.07 49.279C19.511 48.4326 19.1859 47.4189 19.1859 46.3272H18.5859ZM24.5798 40.3543C21.2761 40.3543 18.5859 43.0207 18.5859 46.3272H19.1859C19.1859 43.355 21.6046 40.9543 24.5798 40.9543V40.3543ZM30.5736 46.3272C30.5736 43.0193 27.8757 40.3543 24.5798 40.3543V40.9543C27.5478 40.9543 29.9736 43.3541 29.9736 46.3272H30.5736ZM29.5885 49.6098C30.211 48.6684 30.5736 47.5403 30.5736 46.3272H29.9736C29.9736 47.419 29.6477 48.4326 29.0881 49.2788L29.5885 49.6098ZM43.124 49.1443H29.3383V49.7443H43.124V49.1443ZM41.8903 46.3272C41.8903 47.54 42.2519 48.6681 42.8737 49.6096L43.3744 49.279C42.8154 48.4326 42.4903 47.4189 42.4903 46.3272H41.8903ZM47.8841 40.3543C44.5804 40.3543 41.8903 43.0207 41.8903 46.3272H42.4903C42.4903 43.355 44.9089 40.9543 47.8841 40.9543V40.3543ZM53.878 46.3272C53.878 43.0207 51.1878 40.3543 47.8841 40.3543V40.9543C50.8593 40.9543 53.278 43.355 53.278 46.3272H53.878ZM49.5723 52.0598C52.057 51.3343 53.878 49.0475 53.878 46.3272H53.278C53.278 48.772 51.6415 50.8305 49.4041 51.4838L49.5723 52.0598ZM48.7594 52.2999C49.0935 52.2999 49.4042 52.1957 49.6595 52.0181L49.3169 51.5255C49.1588 51.6355 48.9671 51.6999 48.7594 51.6999V52.2999ZM47.9336 52.2999H48.7594V51.6999H47.9336V52.2999ZM47.8854 52.3001L47.9349 52.2999L47.9323 51.6999L47.8829 51.7001L47.8854 52.3001ZM47.8333 52.2999L47.8829 52.3001L47.8854 51.7001L47.8358 51.6999L47.8333 52.2999ZM24.6292 52.2999H47.8346V51.6999H24.6292V52.2999ZM24.581 52.3001L24.6305 52.2999L24.628 51.6999L24.5785 51.7001L24.581 52.3001ZM24.5289 52.2999L24.5785 52.3001L24.581 51.7001L24.5315 51.6999L24.5289 52.2999ZM17.3184 52.2999H24.5302V51.6999H17.3184V52.2999ZM15.7406 50.7221C15.7406 51.5935 16.447 52.2999 17.3184 52.2999V51.6999C16.7783 51.6999 16.3406 51.2621 16.3406 50.7221H15.7406ZM17.3184 49.1443C16.447 49.1443 15.7406 49.8507 15.7406 50.7221H16.3406C16.3406 50.1821 16.7783 49.7443 17.3184 49.7443V49.1443ZM19.8197 49.1443H17.3184V49.7443H19.8197V49.1443ZM50.7224 46.3272C50.7224 47.8658 49.477 49.1266 47.9176 49.1443L47.9244 49.7443C49.8098 49.7228 51.3224 48.1972 51.3224 46.3272H50.7224ZM47.8841 43.5098C49.4591 43.5098 50.7224 44.7776 50.7224 46.3272H51.3224C51.3224 44.4438 49.7882 42.9098 47.8841 42.9098V43.5098ZM45.0458 46.3272C45.0458 44.7776 46.3091 43.5098 47.8841 43.5098V42.9098C45.9801 42.9098 44.4458 44.4438 44.4458 46.3272H45.0458ZM47.8506 49.1443C46.2866 49.1266 45.0458 47.8672 45.0458 46.3272H44.4458C44.4458 48.1981 45.9532 49.7228 47.8438 49.7443L47.8506 49.1443ZM47.921 49.1443H47.8472V49.7443H47.921V49.1443ZM49.745 28.5156H43.9414V29.1156H49.745V28.5156ZM53.8784 32.6489C53.8784 30.3661 52.0278 28.5156 49.745 28.5156V29.1156C51.6965 29.1156 53.2784 30.6975 53.2784 32.6489H53.8784ZM53.8784 38.5571V32.6489H53.2784V38.5571H53.8784ZM43.9414 38.8571H53.5784V38.2571H43.9414V38.8571ZM43.6414 28.8156V38.5571H44.2414V28.8156H43.6414ZM46.7969 36.0015V31.3711H46.1969V36.0015H46.7969ZM51.0228 35.7015H46.4969V36.3015H51.0228V35.7015ZM50.7228 32.6489V36.0015H51.3228V32.6489H50.7228ZM49.745 31.6711C50.2851 31.6711 50.7228 32.1089 50.7228 32.6489H51.3228C51.3228 31.7775 50.6164 31.0711 49.745 31.0711V31.6711ZM46.4969 31.6711H49.745V31.0711H46.4969V31.6711ZM8.52963 49.1443C7.65825 49.1443 6.95185 49.8507 6.95185 50.7221H7.55185C7.55185 50.1821 7.98962 49.7443 8.52963 49.7443V49.1443ZM13.0333 49.1443H8.52963V49.7443H13.0333V49.1443ZM14.6111 50.7221C14.6111 49.8507 13.9047 49.1443 13.0333 49.1443V49.7443C13.5733 49.7443 14.0111 50.1821 14.0111 50.7221H14.6111ZM13.0333 52.2999C13.9047 52.2999 14.6111 51.5935 14.6111 50.7221H14.0111C14.0111 51.2621 13.5733 51.6999 13.0333 51.6999V52.2999ZM8.52963 52.2999H13.0333V51.6999H8.52963V52.2999ZM6.95185 50.7221C6.95185 51.5935 7.65825 52.2999 8.52963 52.2999V51.6999C7.98962 51.6999 7.55185 51.2621 7.55185 50.7221H6.95185ZM7.09002 39.8932C7.09002 39.3532 7.52779 38.9154 8.0678 38.9154V38.3154C7.19642 38.3154 6.49002 39.0218 6.49002 39.8932H7.09002ZM8.0678 40.871C7.52779 40.871 7.09002 40.4332 7.09002 39.8932H6.49002C6.49002 40.7646 7.19642 41.471 8.0678 41.471V40.871ZM11.2316 40.871H8.0678V41.471H11.2316V40.871ZM12.2094 39.8932C12.2094 40.4332 11.7716 40.871 11.2316 40.871V41.471C12.103 41.471 12.8094 40.7646 12.8094 39.8932H12.2094ZM11.2316 38.9154C11.7716 38.9154 12.2094 39.3532 12.2094 39.8932H12.8094C12.8094 39.0218 12.103 38.3154 11.2316 38.3154V38.9154ZM8.0678 38.9154H11.2316V38.3154H8.0678V38.9154ZM8.52919 32.1087C7.65781 32.1087 6.95141 32.8151 6.95141 33.6865H7.55141C7.55141 33.1465 7.98918 32.7087 8.52919 32.7087V32.1087ZM9.76558 32.1087H8.52919V32.7087H9.76558V32.1087ZM11.3434 33.6865C11.3434 32.8151 10.637 32.1087 9.76558 32.1087V32.7087C10.3056 32.7087 10.7434 33.1465 10.7434 33.6865H11.3434ZM9.76558 35.2643C10.637 35.2643 11.3434 34.5579 11.3434 33.6865H10.7434C10.7434 34.2265 10.3056 34.6643 9.76558 34.6643V35.2643ZM8.52919 35.2643H9.76558V34.6643H8.52919V35.2643ZM6.95141 33.6865C6.95141 34.5579 7.65781 35.2643 8.52919 35.2643V34.6643C7.98918 34.6643 7.55141 34.2265 7.55141 33.6865H6.95141ZM5.3 26.7119C5.3 26.1718 5.73777 25.7341 6.27778 25.7341V25.1341C5.4064 25.1341 4.7 25.8405 4.7 26.7119H5.3ZM6.27778 27.6896C5.73777 27.6896 5.3 27.2519 5.3 26.7119H4.7C4.7 27.5832 5.4064 28.2896 6.27778 28.2896V27.6896ZM10.7815 27.6896H6.27778V28.2896H10.7815V27.6896ZM11.7593 26.7119C11.7593 27.2519 11.3215 27.6896 10.7815 27.6896V28.2896C11.6529 28.2896 12.3593 27.5832 12.3593 26.7119H11.7593ZM10.7815 25.7341C11.3215 25.7341 11.7593 26.1718 11.7593 26.7119H12.3593C12.3593 25.8405 11.6529 25.1341 10.7815 25.1341V25.7341ZM6.27778 25.7341H10.7815V25.1341H6.27778V25.7341Z" fill="#F5F5F5" mask="url(#path-1-inside-1_249:4033)"/>
</svg>
