<svg width="64" height="64" viewBox="0 0 64 64" fill="none" xmlns="http://www.w3.org/2000/svg">
<path d="M26.2095 32.5467H17.8024V49.6667H45.8262V32.5467H34.6167M31.8143 49.6667V23.9867M15 23.9867H48.6286V32.5467H15V23.9867ZM39.0732 19.9341C36.5992 22.4533 31.1137 23.9867 31.1137 23.9867C31.1137 23.9867 32.6195 18.4008 35.0934 15.8815C37.5674 13.3623 38.9691 13.7492 40.0695 14.8669C41.17 15.9847 41.5472 17.4148 39.0732 19.9341ZM24.5554 19.9341C27.0294 22.4533 32.5149 23.9867 32.5149 23.9867C32.5149 23.9867 31.0091 18.4008 28.5351 15.8815C26.0612 13.3623 24.6595 13.7492 23.559 14.8669C22.4585 15.9847 22.0814 17.4148 24.5554 19.9341Z" stroke="#C81A78" stroke-width="1.91071" stroke-linecap="round" stroke-linejoin="round"/>
</svg>
