<svg width="16" height="16" viewBox="0 0 16 16" fill="none" xmlns="http://www.w3.org/2000/svg">
<path d="M5.55556 8.26665H2.38889V14.6666H12.9444V8.26665H8.72223M7.66667 14.6666V5.06665M1.33334 5.06665H14V8.26665H1.33334V5.06665ZM10.4008 3.55166C9.46898 4.49344 7.40278 5.06665 7.40278 5.06665C7.40278 5.06665 7.96995 2.97845 8.90181 2.03668C9.83367 1.0949 10.3616 1.23954 10.7761 1.6574C11.1906 2.07525 11.3327 2.60989 10.4008 3.55166ZM4.9325 3.55166C5.86436 4.49344 7.93056 5.06665 7.93056 5.06665C7.93056 5.06665 7.36339 2.97845 6.43153 2.03668C5.49967 1.0949 4.97173 1.23954 4.55721 1.6574C4.1427 2.07525 4.00064 2.60989 4.9325 3.55166Z" stroke="#474952" stroke-linecap="round" stroke-linejoin="round"/>
</svg>
