<svg width="151" height="45" viewBox="0 0 151 45" fill="none" xmlns="http://www.w3.org/2000/svg">
<path fill-rule="evenodd" clip-rule="evenodd" d="M86.9017 25.21C85.7846 25.3851 84.4234 25.6998 80.2695 25.6998C75.7314 25.6998 72.2053 24.4755 72.2053 18.5291L72.2068 11.1688C72.2068 5.22196 75.7329 3.99774 80.271 3.99774C84.4253 3.99774 85.7865 4.31283 86.904 4.48788C87.4275 4.55752 87.6015 4.73257 87.6015 5.22196V7.46109C87.6015 7.84582 87.2874 8.16054 86.904 8.16054H79.7825C77.7577 8.16054 77.0244 8.85998 77.0244 11.1688V12.5676H86.4851C86.8686 12.5676 87.1827 12.8824 87.1827 13.2671V15.7856C87.1827 16.1707 86.8686 16.4854 86.4851 16.4854H77.0244L77.0229 18.5291C77.0229 20.8375 77.7562 21.5373 79.781 21.5373H86.9017C87.2862 21.5373 87.6 21.8521 87.6 22.2368V24.4755C87.6 24.9653 87.426 25.14 86.9017 25.21" fill="#333333"/>
<path fill-rule="evenodd" clip-rule="evenodd" d="M45.4647 5.06486L42.1142 24.2315C42.045 24.5816 41.7704 24.8964 41.427 24.8964H41.0835C40.7738 24.8964 40.6028 24.6516 40.6028 24.3718V24.2315L43.9537 5.06486C44.0225 4.71514 44.2975 4.40002 44.6406 4.40002H44.9844C45.2934 4.40002 45.4647 4.6452 45.4647 4.92497V5.06486Z" fill="#333333"/>
<path fill-rule="evenodd" clip-rule="evenodd" d="M36.551 4.98785L33.7038 22.096C33.3898 24.274 32.3793 24.8964 30.5667 24.8964H28.6845C27.1163 24.8964 26.2795 24.1359 25.7914 22.1306L23.0378 13.5306C22.9679 13.2192 22.9679 13.15 22.8287 13.15C22.6896 13.15 22.6546 13.2192 22.585 13.5306L19.8311 22.1306C19.343 24.1359 18.5066 24.8964 16.938 24.8964H15.0562C13.2432 24.8964 12.2327 24.274 11.9187 22.096L9 4.98785V4.88405C9 4.57302 9.27829 4.40002 9.59193 4.40002H13.2875C13.5662 4.40002 13.8449 4.64185 13.8795 5.02245L16.0321 20.1949C16.0667 20.5059 16.0667 20.7135 16.2062 20.7135C16.3453 20.7135 16.3453 20.5059 16.4153 20.1949L19.4129 10.8687C19.6216 10.039 20.1098 9.31317 21.6088 9.31317H24.0141C25.5124 9.31317 26.0005 10.039 26.2096 10.8687L29.2076 20.1949C29.2772 20.5059 29.2772 20.7135 29.4167 20.7135C29.5558 20.7135 29.5558 20.5059 29.5908 20.1949L31.6712 5.02245C31.7062 4.64185 31.9848 4.40002 32.2635 4.40002H35.9584C36.2724 4.40002 36.551 4.57302 36.551 4.88405V4.98785Z" fill="#333333"/>
<path fill-rule="evenodd" clip-rule="evenodd" d="M66.8483 4.40002H66.4238C66.0703 4.40002 65.8226 4.71514 65.7517 5.06486L62.546 23.1478C62.5102 23.2877 62.333 23.4279 62.2983 23.4279C62.2923 23.4279 62.2885 23.425 62.2832 23.4246V23.4235C62.2727 23.4227 62.2659 23.4183 62.2565 23.416C62.1536 23.3948 62.117 23.3048 62.0861 23.182L56.3121 5.48452C56.1002 4.88963 55.6403 4.40002 54.7213 4.40002C54.6742 4.40002 54.6263 4.40188 54.578 4.40523V4.40002C54.5558 4.40151 54.5332 4.40486 54.5106 4.40709V4.40002C53.8079 4.47406 53.0008 4.9272 52.7757 6.1021L49.5161 24.2315V24.3718C49.5161 24.6516 49.6933 24.8964 50.0111 24.8964H50.365C50.7183 24.8964 51.0017 24.5816 51.0719 24.2315L54.3319 6.1021C54.362 5.95254 54.4431 5.88334 54.5106 5.86511V5.87255C54.5219 5.8692 54.5339 5.86437 54.5445 5.86437C54.5558 5.86437 54.5663 5.86883 54.578 5.87032V5.87553C54.7073 5.89041 54.8298 5.98565 54.8626 6.11438L60.6363 23.7769C60.9186 24.6493 61.3766 24.8953 62.2565 24.8964H62.2625C62.2697 24.8964 62.2761 24.8956 62.2832 24.8956V24.8964C63.1586 24.8867 63.9268 24.2591 64.1372 23.1478L67.3433 5.06486V4.92497C67.3433 4.64483 67.2015 4.40002 66.8483 4.40002" fill="#333333"/>
<path d="M106.169 3.56196C106.169 3.35696 105.994 3.23981 105.73 3.23981H105.379C105.203 3.23981 104.969 3.41553 104.852 3.59125L98.4377 13.8417C97.9106 14.691 97.7348 14.8667 97.3834 14.8667C97.032 14.8667 96.9148 14.691 96.6805 13.8417L93.8983 3.59125C93.8397 3.41553 93.664 3.23981 93.4882 3.23981H93.2539C92.9025 3.23981 92.6682 3.41553 92.6682 3.76697C92.6682 3.85483 92.6682 3.94269 92.6975 4.03055L95.5383 14.2517C95.8312 15.3353 96.1826 15.7746 96.5927 15.9503L95.099 24.4435C95.099 24.4728 95.099 24.5021 95.099 24.5607C95.099 24.795 95.2455 25 95.509 25H95.8019C96.0948 25 96.3291 24.7364 96.3876 24.4435L97.8813 15.9503C98.3499 15.7746 98.9063 15.3353 99.5799 14.2517L105.994 4.03055C106.111 3.82555 106.169 3.67911 106.169 3.56196ZM122.501 9.62436C122.501 5.17274 120.041 3.09337 116.38 3.09337C111.987 3.09337 108.473 5.37775 107.243 12.3188L106.598 15.9503C106.423 16.9461 106.335 17.854 106.335 18.674C106.335 23.1842 108.854 25.1757 112.485 25.1757C116.849 25.1757 120.393 22.657 121.593 15.9503L122.238 12.3188C122.413 11.323 122.501 10.4444 122.501 9.62436ZM121.213 9.56579C121.213 10.3565 121.125 11.2937 120.949 12.3188L120.305 15.9503C119.28 21.6906 116.322 23.9457 112.69 23.9457C109.644 23.9457 107.624 22.6278 107.624 18.7326C107.624 17.9126 107.711 17.0047 107.887 15.9503L108.531 12.3188C109.615 6.25636 112.573 4.32342 116.146 4.32342C119.104 4.32342 121.213 5.58276 121.213 9.56579ZM142.294 3.7084C142.294 3.44481 142.148 3.23981 141.884 3.23981H141.592C141.299 3.23981 141.064 3.50339 141.006 3.79626L138.634 17.2682C137.872 21.6613 135.705 23.975 131.81 23.975C128.5 23.975 127.124 22.4813 127.124 19.5819C127.124 18.879 127.212 18.1176 127.358 17.2682L129.73 3.79626C129.73 3.76697 129.73 3.73769 129.73 3.7084C129.73 3.44481 129.584 3.23981 129.32 3.23981H129.027C128.735 3.23981 128.5 3.50339 128.442 3.79626L126.069 17.2682C125.923 18.0883 125.835 18.8497 125.835 19.5526C125.835 23.0378 127.622 25.1757 131.605 25.1757C136.671 25.1757 139.044 22.3056 139.922 17.2682L142.294 3.79626C142.294 3.76697 142.294 3.73769 142.294 3.7084Z" fill="#333333"/>
<path d="M19.7702 31.6729C19.7702 31.5777 19.6988 31.5064 19.5917 31.5064H19.449C19.3657 31.5064 19.2824 31.5777 19.2348 31.6729L15.4039 39.6798C15.3087 39.8701 15.1898 39.9296 15.0589 39.9296C14.928 39.9296 14.8447 39.8701 14.8209 39.6798L13.8097 31.6729C13.7978 31.5777 13.7264 31.5064 13.6431 31.5064H13.5004C13.3695 31.5064 13.31 31.6134 13.31 31.7443C13.31 31.7681 13.31 31.78 13.31 31.8038L14.3332 39.8344C14.3808 40.2389 14.6425 40.4174 15.0232 40.4174C15.4039 40.4174 15.6894 40.2389 15.8798 39.8344L19.7345 31.8038C19.7583 31.7562 19.7702 31.7205 19.7702 31.6729ZM24.423 35.9559C24.423 34.6829 23.7686 33.8977 22.4123 33.8977C20.7348 33.8977 19.7711 34.8852 19.4499 36.7411L19.3071 37.574C19.2595 37.8476 19.2358 38.0974 19.2358 38.3354C19.2358 39.6322 19.9258 40.4174 21.2583 40.4174C22.9596 40.4174 23.8995 39.3942 24.2088 37.574L24.3516 36.7411C24.3992 36.4556 24.423 36.2058 24.423 35.9559ZM23.9114 35.9202C23.9114 36.1701 23.8757 36.4437 23.8281 36.7411L23.6853 37.574C23.4355 39.0016 22.7098 39.9534 21.3416 39.9534C20.1994 39.9534 19.7473 39.3942 19.7473 38.3949C19.7473 38.145 19.783 37.8714 19.8306 37.574L19.9734 36.7411C20.2232 35.3135 20.9847 34.3617 22.329 34.3617C23.4593 34.3617 23.9114 34.9209 23.9114 35.9202ZM30.1391 34.1951C30.1391 34.1832 30.1391 34.1713 30.1391 34.1594C30.1391 34.0643 30.0915 34.0286 29.9488 34.0048C29.461 33.9453 28.9137 33.8977 28.533 33.8977C26.8079 33.8977 25.9513 35.0398 25.6658 36.7411L25.5349 37.5383C25.4873 37.8238 25.4635 38.1093 25.4635 38.3711C25.4635 39.5846 26.0108 40.4174 27.379 40.4174C27.7597 40.4174 28.3307 40.3698 28.8423 40.3103C29.0208 40.2865 29.0803 40.227 29.1041 40.0962L29.116 40.0129V40.001C29.116 39.9891 29.116 39.9891 29.116 39.9772C29.116 39.882 29.0446 39.8463 28.9375 39.8463C28.9256 39.8463 28.9137 39.8463 28.9018 39.8463C28.9018 39.8463 28.9018 39.8463 28.8899 39.8463C28.3188 39.9177 27.8548 39.9534 27.4622 39.9534C26.3915 39.9534 25.9751 39.3942 25.9751 38.4068C25.9751 38.145 26.0108 37.8595 26.0584 37.5383L26.1892 36.7411C26.4153 35.3849 27.0934 34.3617 28.4497 34.3617C28.8423 34.3617 29.2944 34.3974 29.8417 34.4688H29.8536C29.8655 34.4688 29.8774 34.4688 29.8893 34.4688C30.0082 34.4688 30.1153 34.4212 30.1272 34.3022L30.1391 34.2189C30.1391 34.207 30.1391 34.207 30.1391 34.1951ZM35.7133 35.9202C35.7133 34.7424 35.1184 33.8977 33.7621 33.8977C32.1798 33.8977 31.1685 34.8733 30.8592 36.7411L30.7283 37.5264C30.6807 37.8 30.6688 38.0855 30.6688 38.3235C30.6688 39.8106 31.5849 40.4174 32.8936 40.4174C33.429 40.4174 34.119 40.3341 34.7139 40.2151C34.8923 40.1794 34.9399 40.1675 34.9875 40.001L35.0113 39.9177C35.0232 39.8939 35.0232 39.8582 35.0232 39.8344C35.0232 39.7511 34.9637 39.7392 34.8804 39.7392C34.8448 39.7392 34.8091 39.7392 34.7734 39.7511C34.1666 39.8701 33.4885 39.9415 32.965 39.9415C31.8585 39.9415 31.1804 39.5846 31.1804 38.2997C31.1804 38.0736 31.2161 37.8119 31.2518 37.5264L31.2875 37.2765H35.2969C35.4158 37.2765 35.5586 37.1813 35.5824 37.0505L35.6419 36.7292C35.6895 36.4437 35.7133 36.182 35.7133 35.9202ZM35.2017 35.8964C35.2017 36.1463 35.166 36.408 35.1184 36.7292L35.1065 36.8006H31.3827L31.3946 36.7411C31.692 35.2778 32.3701 34.3617 33.6907 34.3617C34.7734 34.3617 35.2017 34.909 35.2017 35.8964ZM35.7489 32.8864C35.7489 32.8507 35.7489 32.8269 35.7252 32.7913L34.8091 31.2684C34.7258 31.1375 34.6782 31.09 34.5592 31.09H34.0833C33.9644 31.09 33.9168 31.1375 33.7859 31.2684L32.3225 32.7913C32.275 32.8388 32.2512 32.8864 32.2512 32.9221C32.2512 32.9697 32.2868 32.9935 32.3463 32.9935H32.6438C32.7627 32.9935 32.8103 32.9221 32.9412 32.7913L34.2975 31.4469L35.1779 32.7913C35.2612 32.9221 35.285 32.9935 35.4039 32.9935H35.63C35.7133 32.9935 35.7489 32.9459 35.7489 32.8864ZM44.4409 34.2665C44.4409 34.1832 44.3933 34.1475 44.2862 34.1237C43.7747 34.0167 43.0132 33.8977 42.3351 33.8977C40.6933 33.8977 39.8605 34.7305 39.4917 36.7887L39.2537 38.1331C39.218 38.3354 39.1942 38.5257 39.1942 38.7042C39.1942 39.8701 39.9437 40.4174 40.9193 40.4174C41.6332 40.4174 42.3351 40.0486 42.9656 39.7155L42.8943 40.1081C42.8943 40.12 42.8824 40.1438 42.8824 40.1557C42.8824 40.2627 42.9419 40.346 43.0608 40.346H43.156C43.2869 40.346 43.3939 40.2389 43.4177 40.1081L44.429 34.3498C44.429 34.3141 44.4409 34.2903 44.4409 34.2665ZM43.8698 34.5164L43.0489 39.2158C42.1923 39.6679 41.6451 39.9534 41.0383 39.9534C40.3483 39.9534 39.7177 39.7392 39.7177 38.7042C39.7177 38.5376 39.7415 38.3354 39.7772 38.1331L40.0151 36.7887C40.2888 35.2302 40.9193 34.3617 42.2518 34.3617C42.8229 34.3617 43.4534 34.445 43.8698 34.5164ZM49.7103 34.1832C49.7103 34.0643 49.6032 34.0167 49.4961 34.0048C49.1035 33.9572 48.6395 33.8977 47.7829 33.8977C46.7003 33.8977 45.7128 34.2784 45.7128 35.5157C45.7128 36.1582 46.2244 36.6341 46.8906 37.0386L47.5807 37.455C48.354 37.919 48.6157 38.1688 48.6157 38.5614C48.6157 39.5965 47.9257 39.9534 46.8787 39.9534C46.4504 39.9534 45.7604 39.8939 45.1179 39.7987C45.0703 39.7868 45.0465 39.7868 45.0109 39.7868C44.9276 39.7868 44.8919 39.8106 44.8681 39.9296L44.8443 40.0605C44.8443 40.0724 44.8443 40.0843 44.8443 40.0843C44.8443 40.2032 44.9752 40.227 45.0703 40.2508C45.4867 40.3341 46.2601 40.4174 46.7716 40.4174C48.009 40.4174 49.1392 39.9653 49.1392 38.5614C49.1392 37.9666 48.8537 37.6215 47.9138 37.0386L47.1999 36.5984C46.6051 36.2296 46.2363 35.9083 46.2363 35.4919C46.2363 34.5996 46.7954 34.3617 47.7829 34.3617C48.3778 34.3617 49.1392 34.4331 49.4247 34.4569C49.4366 34.4569 49.508 34.4688 49.5199 34.4688C49.6389 34.4688 49.6865 34.445 49.6984 34.3022L49.7103 34.207C49.7103 34.1951 49.7103 34.1832 49.7103 34.1832ZM54.9502 34.1832C54.9502 34.0643 54.8431 34.0167 54.736 34.0048C54.3434 33.9572 53.8794 33.8977 53.0228 33.8977C51.9402 33.8977 50.9527 34.2784 50.9527 35.5157C50.9527 36.1582 51.4643 36.6341 52.1305 37.0386L52.8206 37.455C53.5939 37.919 53.8556 38.1688 53.8556 38.5614C53.8556 39.5965 53.1656 39.9534 52.1186 39.9534C51.6903 39.9534 51.0003 39.8939 50.3578 39.7987C50.3102 39.7868 50.2864 39.7868 50.2508 39.7868C50.1675 39.7868 50.1318 39.8106 50.108 39.9296L50.0842 40.0605C50.0842 40.0724 50.0842 40.0843 50.0842 40.0843C50.0842 40.2032 50.2151 40.227 50.3102 40.2508C50.7266 40.3341 51.5 40.4174 52.0115 40.4174C53.2489 40.4174 54.3791 39.9653 54.3791 38.5614C54.3791 37.9666 54.0936 37.6215 53.1537 37.0386L52.4398 36.5984C51.845 36.2296 51.4762 35.9083 51.4762 35.4919C51.4762 34.5996 52.0353 34.3617 53.0228 34.3617C53.6177 34.3617 54.3791 34.4331 54.6646 34.4569C54.6765 34.4569 54.7479 34.4688 54.7598 34.4688C54.8788 34.4688 54.9264 34.445 54.9383 34.3022L54.9502 34.207C54.9502 34.1951 54.9502 34.1832 54.9502 34.1832ZM57.2633 32.7794C57.3823 32.7794 57.4894 32.7318 57.5251 32.5533L57.6916 31.6729C57.7273 31.5301 57.656 31.4469 57.5013 31.4469H57.4299C57.3109 31.4469 57.2039 31.4826 57.1682 31.6729L57.0016 32.5533C56.9778 32.6961 57.0135 32.7794 57.192 32.7794H57.2633ZM56.954 33.9572C56.7756 33.9572 56.7399 34.0643 56.7161 34.1832L55.6691 40.12C55.6453 40.2627 55.7048 40.346 55.8595 40.346H55.9309C56.1212 40.346 56.1688 40.2508 56.1926 40.12L57.2396 34.1832C57.2633 34.0405 57.2277 33.9572 57.0849 33.9572H56.954ZM63.2727 35.599C63.2727 34.3736 62.428 33.8977 61.4286 33.8977C60.8099 33.8977 60.1794 34.0881 59.5131 34.3855L59.5488 34.1951C59.5488 34.1713 59.5488 34.1594 59.5488 34.1356C59.5488 34.0405 59.4893 33.9572 59.3823 33.9572H59.2871C59.1562 33.9572 59.0491 34.0643 59.0253 34.1951L57.9784 40.12C57.9784 40.1319 57.9784 40.1438 57.9784 40.1557C57.9784 40.2627 58.0617 40.346 58.1687 40.346H58.2401C58.3591 40.346 58.4781 40.2389 58.5019 40.12L59.4299 34.8495C60.0723 34.5639 60.798 34.3617 61.4048 34.3617C62.1662 34.3617 62.7373 34.6948 62.7373 35.6347C62.7373 35.8013 62.7254 35.9797 62.6897 36.1701L61.9878 40.12C61.9878 40.1319 61.9878 40.1438 61.9878 40.1557C61.9878 40.2627 62.0591 40.346 62.1662 40.346H62.2495C62.3804 40.346 62.4874 40.2389 62.5112 40.12L63.2132 36.1701C63.2489 35.9678 63.2727 35.7775 63.2727 35.599ZM69.5483 34.2665C69.5483 34.1832 69.5007 34.1475 69.3936 34.1237C68.882 34.0167 68.1206 33.8977 67.4425 33.8977C65.8006 33.8977 64.9678 34.7305 64.599 36.7887L64.3611 38.1331C64.3254 38.3354 64.3016 38.5257 64.3016 38.7042C64.3016 39.8701 65.0511 40.4174 66.0267 40.4174C66.7405 40.4174 67.4425 40.0486 68.073 39.7155L68.0016 40.1081C68.0016 40.12 67.9897 40.1438 67.9897 40.1557C67.9897 40.2627 68.0492 40.346 68.1682 40.346H68.2634C68.3942 40.346 68.5013 40.2389 68.5251 40.1081L69.5364 34.3498C69.5364 34.3141 69.5483 34.2903 69.5483 34.2665ZM68.9772 34.5164L68.1563 39.2158C67.2997 39.6679 66.7524 39.9534 66.1457 39.9534C65.4556 39.9534 64.8251 39.7392 64.8251 38.7042C64.8251 38.5376 64.8489 38.3354 64.8846 38.1331L65.1225 36.7887C65.3961 35.2302 66.0267 34.3617 67.3592 34.3617C67.9302 34.3617 68.5608 34.445 68.9772 34.5164ZM71.0581 39.1801C71.0581 39.1206 71.0105 39.0849 70.9391 39.0849H70.7131C70.5941 39.0849 70.5108 39.1444 70.4276 39.3109L69.452 41.3097C69.4282 41.3692 69.4044 41.4168 69.4044 41.4525C69.4044 41.5 69.4282 41.5357 69.4996 41.5357H69.6423C69.7613 41.5357 69.8327 41.4643 69.916 41.3097L71.0105 39.3109C71.0343 39.2634 71.0581 39.2158 71.0581 39.1801ZM80.2168 34.0881C80.2168 34.0048 80.1692 33.9572 80.074 33.9572H79.9074C79.8241 33.9572 79.729 34.0048 79.6576 34.1713L77.183 39.537C77.0164 39.8939 76.9093 39.9653 76.7784 39.9653C76.6476 39.9653 76.5286 39.8939 76.4929 39.537L75.9218 34.1713C75.91 34.0048 75.8267 33.9572 75.7434 33.9572H75.6244C75.4816 33.9572 75.4103 34.0643 75.4103 34.207C75.4103 34.2189 75.4103 34.2427 75.4103 34.2546L76.017 39.6679C76.0884 40.2984 76.3858 40.4174 76.719 40.4174C77.064 40.4174 77.3614 40.2984 77.6588 39.6679L80.1692 34.2546C80.193 34.1951 80.2168 34.1356 80.2168 34.0881ZM85.6055 35.9559C85.6055 34.6829 84.9511 33.8977 83.5948 33.8977C81.9173 33.8977 80.9536 34.8852 80.6324 36.7411L80.4896 37.574C80.4421 37.8476 80.4183 38.0974 80.4183 38.3354C80.4183 39.6322 81.1083 40.4174 82.4408 40.4174C84.1421 40.4174 85.082 39.3942 85.3913 37.574L85.5341 36.7411C85.5817 36.4556 85.6055 36.2058 85.6055 35.9559ZM85.0939 35.9202C85.0939 36.1701 85.0582 36.4437 85.0106 36.7411L84.8678 37.574C84.618 39.0016 83.8923 39.9534 82.5241 39.9534C81.3819 39.9534 80.9298 39.3942 80.9298 38.3949C80.9298 38.145 80.9655 37.8714 81.0131 37.574L81.1559 36.7411C81.4057 35.3135 82.1672 34.3617 83.5115 34.3617C84.6418 34.3617 85.0939 34.9209 85.0939 35.9202ZM91.3216 34.1951C91.3216 34.1832 91.3216 34.1713 91.3216 34.1594C91.3216 34.0643 91.274 34.0286 91.1313 34.0048C90.6435 33.9453 90.0962 33.8977 89.7155 33.8977C87.9904 33.8977 87.1338 35.0398 86.8483 36.7411L86.7174 37.5383C86.6698 37.8238 86.646 38.1093 86.646 38.3711C86.646 39.5846 87.1933 40.4174 88.5615 40.4174C88.9422 40.4174 89.5132 40.3698 90.0248 40.3103C90.2033 40.2865 90.2628 40.227 90.2866 40.0962L90.2985 40.0129V40.001C90.2985 39.9891 90.2985 39.9891 90.2985 39.9772C90.2985 39.882 90.2271 39.8463 90.12 39.8463C90.1081 39.8463 90.0962 39.8463 90.0843 39.8463C90.0843 39.8463 90.0843 39.8463 90.0724 39.8463C89.5013 39.9177 89.0374 39.9534 88.6447 39.9534C87.574 39.9534 87.1576 39.3942 87.1576 38.4068C87.1576 38.145 87.1933 37.8595 87.2409 37.5383L87.3717 36.7411C87.5978 35.3849 88.2759 34.3617 89.6322 34.3617C90.0248 34.3617 90.4769 34.3974 91.0242 34.4688H91.0361C91.048 34.4688 91.0599 34.4688 91.0718 34.4688C91.1908 34.4688 91.2978 34.4212 91.3097 34.3022L91.3216 34.2189C91.3216 34.207 91.3216 34.207 91.3216 34.1951ZM96.8958 35.9202C96.8958 34.7424 96.3009 33.8977 94.9446 33.8977C93.3623 33.8977 92.351 34.8733 92.0417 36.7411L91.9108 37.5264C91.8632 37.8 91.8513 38.0855 91.8513 38.3235C91.8513 39.8106 92.7674 40.4174 94.0761 40.4174C94.6115 40.4174 95.3015 40.3341 95.8964 40.2151C96.0749 40.1794 96.1224 40.1675 96.17 40.001L96.1938 39.9177C96.2057 39.8939 96.2057 39.8582 96.2057 39.8344C96.2057 39.7511 96.1462 39.7392 96.063 39.7392C96.0273 39.7392 95.9916 39.7392 95.9559 39.7511C95.3491 39.8701 94.671 39.9415 94.1475 39.9415C93.0411 39.9415 92.3629 39.5846 92.3629 38.2997C92.3629 38.0736 92.3986 37.8119 92.4343 37.5264L92.47 37.2765H96.4794C96.5983 37.2765 96.7411 37.1813 96.7649 37.0505L96.8244 36.7292C96.872 36.4437 96.8958 36.182 96.8958 35.9202ZM96.3842 35.8964C96.3842 36.1463 96.3485 36.408 96.3009 36.7292L96.289 36.8006H92.5652L92.5771 36.7411C92.8745 35.2778 93.5526 34.3617 94.8732 34.3617C95.9559 34.3617 96.3842 34.909 96.3842 35.8964ZM96.9315 32.8864C96.9315 32.8507 96.9315 32.8269 96.9077 32.7913L95.9916 31.2684C95.9083 31.1375 95.8607 31.09 95.7417 31.09H95.2658C95.1469 31.09 95.0993 31.1375 94.9684 31.2684L93.505 32.7913C93.4575 32.8388 93.4337 32.8864 93.4337 32.9221C93.4337 32.9697 93.4694 32.9935 93.5288 32.9935H93.8263C93.9452 32.9935 93.9928 32.9221 94.1237 32.7913L95.48 31.4469L96.3604 32.7913C96.4437 32.9221 96.4675 32.9935 96.5864 32.9935H96.8125C96.8958 32.9935 96.9315 32.9459 96.9315 32.8864ZM105.528 35.9202C105.528 34.7424 104.933 33.8977 103.577 33.8977C101.995 33.8977 100.983 34.8733 100.674 36.7411L100.543 37.5264C100.496 37.8 100.484 38.0855 100.484 38.3235C100.484 39.8106 101.4 40.4174 102.709 40.4174C103.244 40.4174 103.934 40.3341 104.529 40.2151C104.707 40.1794 104.755 40.1675 104.803 40.001L104.826 39.9177C104.838 39.8939 104.838 39.8582 104.838 39.8344C104.838 39.7511 104.779 39.7392 104.695 39.7392C104.66 39.7392 104.624 39.7392 104.588 39.7511C103.982 39.8701 103.303 39.9415 102.78 39.9415C101.674 39.9415 100.995 39.5846 100.995 38.2997C100.995 38.0736 101.031 37.8119 101.067 37.5264L101.102 37.2765H105.112C105.231 37.2765 105.374 37.1813 105.397 37.0505L105.457 36.7292C105.504 36.4437 105.528 36.182 105.528 35.9202ZM105.017 35.8964C105.017 36.1463 104.981 36.408 104.933 36.7292L104.921 36.8006H101.198L101.21 36.7411C101.507 35.2778 102.185 34.3617 103.506 34.3617C104.588 34.3617 105.017 34.909 105.017 35.8964ZM110.974 34.1832C110.974 34.0643 110.867 34.0167 110.76 34.0048C110.367 33.9572 109.903 33.8977 109.047 33.8977C107.964 33.8977 106.977 34.2784 106.977 35.5157C106.977 36.1582 107.488 36.6341 108.154 37.0386L108.845 37.455C109.618 37.919 109.88 38.1688 109.88 38.5614C109.88 39.5965 109.19 39.9534 108.143 39.9534C107.714 39.9534 107.024 39.8939 106.382 39.7987C106.334 39.7868 106.31 39.7868 106.275 39.7868C106.191 39.7868 106.156 39.8106 106.132 39.9296L106.108 40.0605C106.108 40.0724 106.108 40.0843 106.108 40.0843C106.108 40.2032 106.239 40.227 106.334 40.2508C106.751 40.3341 107.524 40.4174 108.035 40.4174C109.273 40.4174 110.403 39.9653 110.403 38.5614C110.403 37.9666 110.118 37.6215 109.178 37.0386L108.464 36.5984C107.869 36.2296 107.5 35.9083 107.5 35.4919C107.5 34.5996 108.059 34.3617 109.047 34.3617C109.642 34.3617 110.403 34.4331 110.689 34.4569C110.7 34.4569 110.772 34.4688 110.784 34.4688C110.903 34.4688 110.95 34.445 110.962 34.3022L110.974 34.207C110.974 34.1951 110.974 34.1832 110.974 34.1832ZM116.464 34.1951C116.464 34.1832 116.464 34.1713 116.464 34.1594C116.464 34.0643 116.416 34.0286 116.273 34.0048C115.786 33.9453 115.238 33.8977 114.858 33.8977C113.133 33.8977 112.276 35.0398 111.99 36.7411L111.86 37.5383C111.812 37.8238 111.788 38.1093 111.788 38.3711C111.788 39.5846 112.336 40.4174 113.704 40.4174C114.084 40.4174 114.655 40.3698 115.167 40.3103C115.346 40.2865 115.405 40.227 115.429 40.0962L115.441 40.0129V40.001C115.441 39.9891 115.441 39.9891 115.441 39.9772C115.441 39.882 115.369 39.8463 115.262 39.8463C115.25 39.8463 115.238 39.8463 115.227 39.8463C115.227 39.8463 115.227 39.8463 115.215 39.8463C114.644 39.9177 114.18 39.9534 113.787 39.9534C112.716 39.9534 112.3 39.3942 112.3 38.4068C112.3 38.145 112.336 37.8595 112.383 37.5383L112.514 36.7411C112.74 35.3849 113.418 34.3617 114.774 34.3617C115.167 34.3617 115.619 34.3974 116.166 34.4688H116.178C116.19 34.4688 116.202 34.4688 116.214 34.4688C116.333 34.4688 116.44 34.4212 116.452 34.3022L116.464 34.2189C116.464 34.207 116.464 34.207 116.464 34.1951ZM121.797 35.9559C121.797 34.6829 121.142 33.8977 119.786 33.8977C118.109 33.8977 117.145 34.8852 116.824 36.7411L116.681 37.574C116.633 37.8476 116.61 38.0974 116.61 38.3354C116.61 39.6322 117.3 40.4174 118.632 40.4174C120.333 40.4174 121.273 39.3942 121.583 37.574L121.725 36.7411C121.773 36.4556 121.797 36.2058 121.797 35.9559ZM121.285 35.9202C121.285 36.1701 121.25 36.4437 121.202 36.7411L121.059 37.574C120.809 39.0016 120.084 39.9534 118.715 39.9534C117.573 39.9534 117.121 39.3942 117.121 38.3949C117.121 38.145 117.157 37.8714 117.204 37.574L117.347 36.7411C117.597 35.3135 118.358 34.3617 119.703 34.3617C120.833 34.3617 121.285 34.9209 121.285 35.9202ZM124.753 31.6848C124.753 31.5896 124.693 31.5064 124.586 31.5064H124.467C124.348 31.5064 124.253 31.6134 124.229 31.7324L122.742 40.12C122.742 40.1319 122.742 40.1438 122.742 40.1675C122.742 40.2627 122.802 40.346 122.909 40.346H123.028C123.147 40.346 123.242 40.2389 123.266 40.12L124.753 31.7324C124.753 31.7205 124.753 31.7086 124.753 31.6848ZM130.215 35.599C130.215 34.6115 129.668 33.8977 128.287 33.8977C127.764 33.8977 127.133 33.981 126.646 34.1L127.062 31.7324V31.7205C127.062 31.7086 127.062 31.6967 127.062 31.6848C127.062 31.5896 127.003 31.5064 126.896 31.5064H126.777C126.658 31.5064 126.562 31.6134 126.539 31.7324L125.051 40.12V40.1319C125.051 40.1438 125.051 40.1557 125.051 40.1675C125.051 40.2627 125.111 40.346 125.218 40.346H125.337C125.456 40.346 125.551 40.2389 125.575 40.12L126.562 34.5877C127.038 34.4569 127.693 34.3617 128.204 34.3617C129.263 34.3617 129.703 34.7781 129.703 35.599C129.703 35.7775 129.679 35.9678 129.644 36.182L128.942 40.12V40.1319C128.942 40.1438 128.942 40.1557 128.942 40.1675C128.942 40.2627 128.989 40.346 129.096 40.346H129.215C129.346 40.346 129.43 40.2389 129.453 40.12L130.155 36.182C130.191 35.9797 130.215 35.7894 130.215 35.599ZM136.317 35.9202C136.317 34.7424 135.722 33.8977 134.366 33.8977C132.784 33.8977 131.772 34.8733 131.463 36.7411L131.332 37.5264C131.284 37.8 131.273 38.0855 131.273 38.3235C131.273 39.8106 132.189 40.4174 133.497 40.4174C134.033 40.4174 134.723 40.3341 135.318 40.2151C135.496 40.1794 135.544 40.1675 135.591 40.001L135.615 39.9177C135.627 39.8939 135.627 39.8582 135.627 39.8344C135.627 39.7511 135.567 39.7392 135.484 39.7392C135.449 39.7392 135.413 39.7392 135.377 39.7511C134.77 39.8701 134.092 39.9415 133.569 39.9415C132.462 39.9415 131.784 39.5846 131.784 38.2997C131.784 38.0736 131.82 37.8119 131.856 37.5264L131.891 37.2765H135.901C136.02 37.2765 136.162 37.1813 136.186 37.0505L136.246 36.7292C136.293 36.4437 136.317 36.182 136.317 35.9202ZM135.805 35.8964C135.805 36.1463 135.77 36.408 135.722 36.7292L135.71 36.8006H131.986L131.998 36.7411C132.296 35.2778 132.974 34.3617 134.294 34.3617C135.377 34.3617 135.805 34.909 135.805 35.8964ZM137.694 39.2753C137.694 39.1682 137.623 39.0849 137.516 39.0849H137.444C137.325 39.0849 137.194 39.192 137.171 39.3109L137.016 40.1913C137.016 40.2032 137.016 40.2151 137.016 40.227C137.016 40.346 137.099 40.4174 137.206 40.4174H137.278C137.397 40.4174 137.516 40.3222 137.539 40.1913L137.694 39.3109C137.694 39.2991 137.694 39.2872 137.694 39.2753Z" fill="#287AB5"/>
</svg>
